<svg xmlns="http://www.w3.org/2000/svg" viewBox="0 0 36 24" role="img" aria-label="United States">
  <rect width="36" height="24" rx="3" fill="#b22234"/>
  <path fill="#fff" d="M0 2h36v2H0zm0 4h36v2H0zm0 4h36v2H0zm0 4h36v2H0zm0 4h36v2H0zm0 4h36v2H0z"/>
  <path fill="#3c3b6e" d="M0 0h16v14H0z"/>
  <g fill="#fff">
    <circle cx="2" cy="2" r=".55"/><circle cx="5" cy="2" r=".55"/><circle cx="8" cy="2" r=".55"/><circle cx="11" cy="2" r=".55"/><circle cx="14" cy="2" r=".55"/>
    <circle cx="3.5" cy="4" r=".55"/><circle cx="6.5" cy="4" r=".55"/><circle cx="9.5" cy="4" r=".55"/><circle cx="12.5" cy="4" r=".55"/>
    <circle cx="2" cy="6" r=".55"/><circle cx="5" cy="6" r=".55"/><circle cx="8" cy="6" r=".55"/><circle cx="11" cy="6" r=".55"/><circle cx="14" cy="6" r=".55"/>
    <circle cx="3.5" cy="8" r=".55"/><circle cx="6.5" cy="8" r=".55"/><circle cx="9.5" cy="8" r=".55"/><circle cx="12.5" cy="8" r=".55"/>
    <circle cx="2" cy="10" r=".55"/><circle cx="5" cy="10" r=".55"/><circle cx="8" cy="10" r=".55"/><circle cx="11" cy="10" r=".55"/><circle cx="14" cy="10" r=".55"/>
    <circle cx="3.5" cy="12" r=".55"/><circle cx="6.5" cy="12" r=".55"/><circle cx="9.5" cy="12" r=".55"/><circle cx="12.5" cy="12" r=".55"/>
  </g>
</svg>
